<?xml version="1.0" encoding="UTF-8" standalone="no"?><!DOCTYPE svg PUBLIC "-//W3C//DTD SVG 1.1//EN" "http://www.w3.org/Graphics/SVG/1.1/DTD/svg11.dtd"><!-- Generated by graphviz version 2.40.1 (20161225.0304)
 --><!-- Title: %0 Pages: 1 --><svg xmlns="http://www.w3.org/2000/svg" xmlns:xlink="http://www.w3.org/1999/xlink" width="2400pt" height="476pt" viewBox="0.00 0.00 2399.57 476.00">
<g id="graph0" class="graph" transform="scale(1 1) rotate(0) translate(4 472)">
<title>%0</title>
<polygon fill="#ffffff" stroke="transparent" points="-4,4 -4,-472 2395.5668,-472 2395.5668,4 -4,4"/>
<!-- [root] aws_instance.hpc_aws_instance (expand) -->
<g id="node1" class="node">
<title>[root] aws_instance.hpc_aws_instance (expand)</title>
<polygon fill="none" stroke="#000000" points="969.1083,-324 773.1375,-324 773.1375,-288 969.1083,-288 969.1083,-324"/>
<text text-anchor="middle" x="871.1229" y="-301.8" font-family="Times,serif" font-size="14.00" fill="#000000">aws_instance.hpc_aws_instance</text>
</g>
<!-- [root] aws_network_interface.hpc_interface (expand) -->
<g id="node3" class="node">
<title>[root] aws_network_interface.hpc_interface (expand)</title>
<polygon fill="none" stroke="#000000" points="987.3975,-252 760.8483,-252 760.8483,-216 987.3975,-216 987.3975,-252"/>
<text text-anchor="middle" x="874.1229" y="-229.8" font-family="Times,serif" font-size="14.00" fill="#000000">aws_network_interface.hpc_interface</text>
</g>
<!-- [root] aws_instance.hpc_aws_instance (expand)&#45;&gt;[root] aws_network_interface.hpc_interface (expand) -->
<g id="edge1" class="edge">
<title>[root] aws_instance.hpc_aws_instance (expand)-&gt;[root] aws_network_interface.hpc_interface (expand)</title>
<path fill="none" stroke="#000000" d="M871.8799,-287.8314C872.2008,-280.131 872.5823,-270.9743 872.9389,-262.4166"/>
<polygon fill="#000000" stroke="#000000" points="876.4362,-262.5503 873.3557,-252.4133 869.4423,-262.2589 876.4362,-262.5503"/>
</g>
<!-- [root] var.PRIVATE_KEY_PATH -->
<g id="node12" class="node">
<title>[root] var.PRIVATE_KEY_PATH</title>
<polygon fill="none" stroke="#000000" points="736.9106,-252 567.3352,-252 567.3352,-216 742.9106,-216 742.9106,-246 736.9106,-252"/>
<polyline fill="none" stroke="#000000" points="736.9106,-252 736.9106,-246 "/>
<polyline fill="none" stroke="#000000" points="742.9106,-246 736.9106,-246 "/>
<text text-anchor="middle" x="655.1229" y="-229.8" font-family="Times,serif" font-size="14.00" fill="#000000">var.PRIVATE_KEY_PATH</text>
</g>
<!-- [root] aws_instance.hpc_aws_instance (expand)&#45;&gt;[root] var.PRIVATE_KEY_PATH -->
<g id="edge2" class="edge">
<title>[root] aws_instance.hpc_aws_instance (expand)-&gt;[root] var.PRIVATE_KEY_PATH</title>
<path fill="none" stroke="#000000" d="M816.8958,-287.9243C787.2389,-278.0387 750.3192,-265.7321 719.2408,-255.3726"/>
<polygon fill="#000000" stroke="#000000" points="719.966,-251.9251 709.3723,-252.0831 717.7523,-258.5659 719.966,-251.9251"/>
</g>
<!-- [root] aws_internet_gateway.hpc_igw (expand) -->
<g id="node2" class="node">
<title>[root] aws_internet_gateway.hpc_igw (expand)</title>
<polygon fill="none" stroke="#000000" points="1319.5031,-180 1126.7427,-180 1126.7427,-144 1319.5031,-144 1319.5031,-180"/>
<text text-anchor="middle" x="1223.1229" y="-157.8" font-family="Times,serif" font-size="14.00" fill="#000000">aws_internet_gateway.hpc_igw</text>
</g>
<!-- [root] aws_vpc.hpc_vpc (expand) -->
<g id="node8" class="node">
<title>[root] aws_vpc.hpc_vpc (expand)</title>
<polygon fill="none" stroke="#000000" points="1092.0325,-108 976.2133,-108 976.2133,-72 1092.0325,-72 1092.0325,-108"/>
<text text-anchor="middle" x="1034.1229" y="-85.8" font-family="Times,serif" font-size="14.00" fill="#000000">aws_vpc.hpc_vpc</text>
</g>
<!-- [root] aws_internet_gateway.hpc_igw (expand)&#45;&gt;[root] aws_vpc.hpc_vpc (expand) -->
<g id="edge3" class="edge">
<title>[root] aws_internet_gateway.hpc_igw (expand)-&gt;[root] aws_vpc.hpc_vpc (expand)</title>
<path fill="none" stroke="#000000" d="M1175.4302,-143.8314C1149.8155,-134.0734 1118.0627,-121.977 1091.1489,-111.7242"/>
<polygon fill="#000000" stroke="#000000" points="1092.0635,-108.3273 1081.4726,-108.038 1089.5715,-114.8687 1092.0635,-108.3273"/>
</g>
<!-- [root] aws_security_group.allow_ssh_sg (expand) -->
<g id="node6" class="node">
<title>[root] aws_security_group.allow_ssh_sg (expand)</title>
<polygon fill="none" stroke="#000000" points="941.8013,-180 734.4444,-180 734.4444,-144 941.8013,-144 941.8013,-180"/>
<text text-anchor="middle" x="838.1229" y="-157.8" font-family="Times,serif" font-size="14.00" fill="#000000">aws_security_group.allow_ssh_sg</text>
</g>
<!-- [root] aws_network_interface.hpc_interface (expand)&#45;&gt;[root] aws_security_group.allow_ssh_sg (expand) -->
<g id="edge4" class="edge">
<title>[root] aws_network_interface.hpc_interface (expand)-&gt;[root] aws_security_group.allow_ssh_sg (expand)</title>
<path fill="none" stroke="#000000" d="M865.0386,-215.8314C861.0614,-207.8771 856.3074,-198.369 851.909,-189.5723"/>
<polygon fill="#000000" stroke="#000000" points="854.9322,-187.7923 847.3295,-180.4133 848.6712,-190.9228 854.9322,-187.7923"/>
</g>
<!-- [root] aws_subnet.hpc_subnet (expand) -->
<g id="node7" class="node">
<title>[root] aws_subnet.hpc_subnet (expand)</title>
<polygon fill="none" stroke="#000000" points="1108.2035,-180 960.0423,-180 960.0423,-144 1108.2035,-144 1108.2035,-180"/>
<text text-anchor="middle" x="1034.1229" y="-157.8" font-family="Times,serif" font-size="14.00" fill="#000000">aws_subnet.hpc_subnet</text>
</g>
<!-- [root] aws_network_interface.hpc_interface (expand)&#45;&gt;[root] aws_subnet.hpc_subnet (expand) -->
<g id="edge5" class="edge">
<title>[root] aws_network_interface.hpc_interface (expand)-&gt;[root] aws_subnet.hpc_subnet (expand)</title>
<path fill="none" stroke="#000000" d="M914.4977,-215.8314C935.8016,-206.2446 962.1212,-194.4008 984.644,-184.2655"/>
<polygon fill="#000000" stroke="#000000" points="986.3555,-187.3334 994.0385,-180.038 983.483,-180.95 986.3555,-187.3334"/>
</g>
<!-- [root] local.local_host_2_ip (expand) -->
<g id="node13" class="node">
<title>[root] local.local_host_2_ip (expand)</title>
<ellipse fill="none" stroke="#000000" cx="539.1229" cy="-162" rx="155.0837" ry="18"/>
<text text-anchor="middle" x="539.1229" y="-157.8" font-family="Times,serif" font-size="14.00" fill="#000000">[root] local.local_host_2_ip (expand)</text>
</g>
<!-- [root] aws_network_interface.hpc_interface (expand)&#45;&gt;[root] local.local_host_2_ip (expand) -->
<g id="edge6" class="edge">
<title>[root] aws_network_interface.hpc_interface (expand)-&gt;[root] local.local_host_2_ip (expand)</title>
<path fill="none" stroke="#000000" d="M790.0207,-215.9243C738.9624,-204.9506 674.0238,-190.9936 623.0054,-180.0285"/>
<polygon fill="#000000" stroke="#000000" points="623.5078,-176.5566 612.9956,-177.8771 622.0369,-183.4003 623.5078,-176.5566"/>
</g>
<!-- [root] aws_route_table.hpc_public_route_table (expand) -->
<g id="node4" class="node">
<title>[root] aws_route_table.hpc_public_route_table (expand)</title>
<polygon fill="none" stroke="#000000" points="1313.0519,-252 1069.1939,-252 1069.1939,-216 1313.0519,-216 1313.0519,-252"/>
<text text-anchor="middle" x="1191.1229" y="-229.8" font-family="Times,serif" font-size="14.00" fill="#000000">aws_route_table.hpc_public_route_table</text>
</g>
<!-- [root] aws_route_table.hpc_public_route_table (expand)&#45;&gt;[root] aws_internet_gateway.hpc_igw (expand) -->
<g id="edge7" class="edge">
<title>[root] aws_route_table.hpc_public_route_table (expand)-&gt;[root] aws_internet_gateway.hpc_igw (expand)</title>
<path fill="none" stroke="#000000" d="M1199.1978,-215.8314C1202.7331,-207.8771 1206.9589,-198.369 1210.8685,-189.5723"/>
<polygon fill="#000000" stroke="#000000" points="1214.0761,-190.9729 1214.9392,-180.4133 1207.6794,-188.1299 1214.0761,-190.9729"/>
</g>
<!-- [root] aws_route_table_association.hpc_route_table_public_subnet&#45;1 (expand) -->
<g id="node5" class="node">
<title>[root] aws_route_table_association.hpc_route_table_public_subnet-1 (expand)</title>
<polygon fill="none" stroke="#000000" points="1363.9667,-324 996.2791,-324 996.2791,-288 1363.9667,-288 1363.9667,-324"/>
<text text-anchor="middle" x="1180.1229" y="-301.8" font-family="Times,serif" font-size="14.00" fill="#000000">aws_route_table_association.hpc_route_table_public_subnet-1</text>
</g>
<!-- [root] aws_route_table_association.hpc_route_table_public_subnet&#45;1 (expand)&#45;&gt;[root] aws_route_table.hpc_public_route_table (expand) -->
<g id="edge8" class="edge">
<title>[root] aws_route_table_association.hpc_route_table_public_subnet-1 (expand)-&gt;[root] aws_route_table.hpc_public_route_table (expand)</title>
<path fill="none" stroke="#000000" d="M1182.8987,-287.8314C1184.0751,-280.131 1185.474,-270.9743 1186.7815,-262.4166"/>
<polygon fill="#000000" stroke="#000000" points="1190.2593,-262.8272 1188.3098,-252.4133 1183.3396,-261.7699 1190.2593,-262.8272"/>
</g>
<!-- [root] aws_route_table_association.hpc_route_table_public_subnet&#45;1 (expand)&#45;&gt;[root] aws_subnet.hpc_subnet (expand) -->
<g id="edge9" class="edge">
<title>[root] aws_route_table_association.hpc_route_table_public_subnet-1 (expand)-&gt;[root] aws_subnet.hpc_subnet (expand)</title>
<path fill="none" stroke="#000000" d="M1113.685,-287.9827C1094.1127,-279.8107 1074.1955,-268.2213 1060.1229,-252 1045.2852,-234.8967 1038.8963,-209.7788 1036.1551,-190.4216"/>
<polygon fill="#000000" stroke="#000000" points="1039.6149,-189.8734 1034.977,-180.3477 1032.6623,-190.6866 1039.6149,-189.8734"/>
</g>
<!-- [root] aws_security_group.allow_ssh_sg (expand)&#45;&gt;[root] aws_vpc.hpc_vpc (expand) -->
<g id="edge10" class="edge">
<title>[root] aws_security_group.allow_ssh_sg (expand)-&gt;[root] aws_vpc.hpc_vpc (expand)</title>
<path fill="none" stroke="#000000" d="M887.329,-143.9243C914.0068,-134.1243 947.1615,-121.945 975.2081,-111.6422"/>
<polygon fill="#000000" stroke="#000000" points="976.7167,-114.8167 984.8966,-108.0831 974.303,-108.246 976.7167,-114.8167"/>
</g>
<!-- [root] aws_subnet.hpc_subnet (expand)&#45;&gt;[root] aws_vpc.hpc_vpc (expand) -->
<g id="edge11" class="edge">
<title>[root] aws_subnet.hpc_subnet (expand)-&gt;[root] aws_vpc.hpc_vpc (expand)</title>
<path fill="none" stroke="#000000" d="M1034.1229,-143.8314C1034.1229,-136.131 1034.1229,-126.9743 1034.1229,-118.4166"/>
<polygon fill="#000000" stroke="#000000" points="1037.623,-118.4132 1034.1229,-108.4133 1030.623,-118.4133 1037.623,-118.4132"/>
</g>
<!-- [root] provider[&quot;registry.terraform.io/hashicorp/aws&quot;] -->
<g id="node10" class="node">
<title>[root] provider["registry.terraform.io/hashicorp/aws"]</title>
<polygon fill="none" stroke="#000000" points="1034.1229,-36 759.1324,-18 1034.1229,0 1309.1133,-18 1034.1229,-36"/>
<text text-anchor="middle" x="1034.1229" y="-13.8" font-family="Times,serif" font-size="14.00" fill="#000000">provider["registry.terraform.io/hashicorp/aws"]</text>
</g>
<!-- [root] aws_vpc.hpc_vpc (expand)&#45;&gt;[root] provider[&quot;registry.terraform.io/hashicorp/aws&quot;] -->
<g id="edge12" class="edge">
<title>[root] aws_vpc.hpc_vpc (expand)-&gt;[root] provider["registry.terraform.io/hashicorp/aws"]</title>
<path fill="none" stroke="#000000" d="M1034.1229,-71.8314C1034.1229,-64.131 1034.1229,-54.9743 1034.1229,-46.4166"/>
<polygon fill="#000000" stroke="#000000" points="1037.623,-46.4132 1034.1229,-36.4133 1030.623,-46.4133 1037.623,-46.4132"/>
</g>
<!-- [root] data.external.datasource_host_2_ip (expand) -->
<g id="node9" class="node">
<title>[root] data.external.datasource_host_2_ip (expand)</title>
<polygon fill="none" stroke="#000000" points="1994.1088,-252 1780.1369,-252 1780.1369,-216 1994.1088,-216 1994.1088,-252"/>
<text text-anchor="middle" x="1887.1229" y="-229.8" font-family="Times,serif" font-size="14.00" fill="#000000">data.external.datasource_host_2_ip</text>
</g>
<!-- [root] provider[&quot;registry.terraform.io/hashicorp/external&quot;] -->
<g id="node11" class="node">
<title>[root] provider["registry.terraform.io/hashicorp/external"]</title>
<polygon fill="none" stroke="#000000" points="1887.1229,-180 1589.6358,-162 1887.1229,-144 2184.61,-162 1887.1229,-180"/>
<text text-anchor="middle" x="1887.1229" y="-157.8" font-family="Times,serif" font-size="14.00" fill="#000000">provider["registry.terraform.io/hashicorp/external"]</text>
</g>
<!-- [root] data.external.datasource_host_2_ip (expand)&#45;&gt;[root] provider[&quot;registry.terraform.io/hashicorp/external&quot;] -->
<g id="edge13" class="edge">
<title>[root] data.external.datasource_host_2_ip (expand)-&gt;[root] provider["registry.terraform.io/hashicorp/external"]</title>
<path fill="none" stroke="#000000" d="M1887.1229,-215.8314C1887.1229,-208.131 1887.1229,-198.9743 1887.1229,-190.4166"/>
<polygon fill="#000000" stroke="#000000" points="1890.623,-190.4132 1887.1229,-180.4133 1883.623,-190.4133 1890.623,-190.4132"/>
</g>
<!-- [root] local.lines (expand) -->
<g id="node15" class="node">
<title>[root] local.lines (expand)</title>
<ellipse fill="none" stroke="#000000" cx="539.1229" cy="-90" rx="111.677" ry="18"/>
<text text-anchor="middle" x="539.1229" y="-85.8" font-family="Times,serif" font-size="14.00" fill="#000000">[root] local.lines (expand)</text>
</g>
<!-- [root] local.local_host_2_ip (expand)&#45;&gt;[root] local.lines (expand) -->
<g id="edge16" class="edge">
<title>[root] local.local_host_2_ip (expand)-&gt;[root] local.lines (expand)</title>
<path fill="none" stroke="#000000" d="M539.1229,-143.8314C539.1229,-136.131 539.1229,-126.9743 539.1229,-118.4166"/>
<polygon fill="#000000" stroke="#000000" points="542.623,-118.4132 539.1229,-108.4133 535.623,-118.4133 542.623,-118.4132"/>
</g>
<!-- [root] local.datasource_host_2_ip (expand) -->
<g id="node14" class="node">
<title>[root] local.datasource_host_2_ip (expand)</title>
<ellipse fill="none" stroke="#000000" cx="1715.1229" cy="-306" rx="177.6179" ry="18"/>
<text text-anchor="middle" x="1715.1229" y="-301.8" font-family="Times,serif" font-size="14.00" fill="#000000">[root] local.datasource_host_2_ip (expand)</text>
</g>
<!-- [root] local.datasource_host_2_ip (expand)&#45;&gt;[root] data.external.datasource_host_2_ip (expand) -->
<g id="edge14" class="edge">
<title>[root] local.datasource_host_2_ip (expand)-&gt;[root] data.external.datasource_host_2_ip (expand)</title>
<path fill="none" stroke="#000000" d="M1757.1988,-288.3868C1780.5685,-278.6042 1809.8535,-266.3453 1834.7017,-255.9437"/>
<polygon fill="#000000" stroke="#000000" points="1836.1133,-259.1472 1843.9862,-252.0572 1833.4103,-252.6901 1836.1133,-259.1472"/>
</g>
<!-- [root] local.raw_lines (expand) -->
<g id="node16" class="node">
<title>[root] local.raw_lines (expand)</title>
<ellipse fill="none" stroke="#000000" cx="539.1229" cy="-18" rx="130.7797" ry="18"/>
<text text-anchor="middle" x="539.1229" y="-13.8" font-family="Times,serif" font-size="14.00" fill="#000000">[root] local.raw_lines (expand)</text>
</g>
<!-- [root] local.lines (expand)&#45;&gt;[root] local.raw_lines (expand) -->
<g id="edge15" class="edge">
<title>[root] local.lines (expand)-&gt;[root] local.raw_lines (expand)</title>
<path fill="none" stroke="#000000" d="M539.1229,-71.8314C539.1229,-64.131 539.1229,-54.9743 539.1229,-46.4166"/>
<polygon fill="#000000" stroke="#000000" points="542.623,-46.4132 539.1229,-36.4133 535.623,-46.4133 542.623,-46.4132"/>
</g>
<!-- [root] local.string_local_host_2_ip (expand) -->
<g id="node17" class="node">
<title>[root] local.string_local_host_2_ip (expand)</title>
<ellipse fill="none" stroke="#000000" cx="556.1229" cy="-306" rx="181.73" ry="18"/>
<text text-anchor="middle" x="556.1229" y="-301.8" font-family="Times,serif" font-size="14.00" fill="#000000">[root] local.string_local_host_2_ip (expand)</text>
</g>
<!-- [root] local.string_local_host_2_ip (expand)&#45;&gt;[root] local.local_host_2_ip (expand) -->
<g id="edge17" class="edge">
<title>[root] local.string_local_host_2_ip (expand)-&gt;[root] local.local_host_2_ip (expand)</title>
<path fill="none" stroke="#000000" d="M553.9698,-287.7623C551.0702,-263.201 545.8813,-219.2474 542.4702,-190.3541"/>
<polygon fill="#000000" stroke="#000000" points="545.9068,-189.6103 541.2585,-180.0896 538.9551,-190.431 545.9068,-189.6103"/>
</g>
<!-- [root] output.aws_hpc_instance (expand) -->
<g id="node18" class="node">
<title>[root] output.aws_hpc_instance (expand)</title>
<ellipse fill="none" stroke="#000000" cx="745.1229" cy="-378" rx="169.5333" ry="18"/>
<text text-anchor="middle" x="745.1229" y="-373.8" font-family="Times,serif" font-size="14.00" fill="#000000">[root] output.aws_hpc_instance (expand)</text>
</g>
<!-- [root] output.aws_hpc_instance (expand)&#45;&gt;[root] aws_instance.hpc_aws_instance (expand) -->
<g id="edge18" class="edge">
<title>[root] output.aws_hpc_instance (expand)-&gt;[root] aws_instance.hpc_aws_instance (expand)</title>
<path fill="none" stroke="#000000" d="M776.269,-360.2022C792.6523,-350.8404 812.9358,-339.2498 830.5358,-329.1927"/>
<polygon fill="#000000" stroke="#000000" points="832.514,-332.0934 839.4599,-324.0931 829.041,-326.0157 832.514,-332.0934"/>
</g>
<!-- [root] output.datasource_host_2_ip_out (expand) -->
<g id="node19" class="node">
<title>[root] output.datasource_host_2_ip_out (expand)</title>
<ellipse fill="none" stroke="#000000" cx="1646.1229" cy="-378" rx="200.7801" ry="18"/>
<text text-anchor="middle" x="1646.1229" y="-373.8" font-family="Times,serif" font-size="14.00" fill="#000000">[root] output.datasource_host_2_ip_out (expand)</text>
</g>
<!-- [root] output.datasource_host_2_ip_out (expand)&#45;&gt;[root] local.datasource_host_2_ip (expand) -->
<g id="edge19" class="edge">
<title>[root] output.datasource_host_2_ip_out (expand)-&gt;[root] local.datasource_host_2_ip (expand)</title>
<path fill="none" stroke="#000000" d="M1663.5345,-359.8314C1671.6439,-351.3694 1681.4385,-341.1489 1690.3048,-331.8971"/>
<polygon fill="#000000" stroke="#000000" points="1693.0847,-334.0549 1697.4768,-324.4133 1688.0308,-329.2115 1693.0847,-334.0549"/>
</g>
<!-- [root] output.local_host_2_ip_out (expand) -->
<g id="node20" class="node">
<title>[root] output.local_host_2_ip_out (expand)</title>
<ellipse fill="none" stroke="#000000" cx="178.1229" cy="-306" rx="178.2459" ry="18"/>
<text text-anchor="middle" x="178.1229" y="-301.8" font-family="Times,serif" font-size="14.00" fill="#000000">[root] output.local_host_2_ip_out (expand)</text>
</g>
<!-- [root] output.local_host_2_ip_out (expand)&#45;&gt;[root] local.local_host_2_ip (expand) -->
<g id="edge20" class="edge">
<title>[root] output.local_host_2_ip_out (expand)-&gt;[root] local.local_host_2_ip (expand)</title>
<path fill="none" stroke="#000000" d="M222.0277,-288.4867C288.565,-261.9455 414.7393,-211.6156 486.2342,-183.0969"/>
<polygon fill="#000000" stroke="#000000" points="487.5316,-186.3476 495.5231,-179.3916 484.938,-179.8458 487.5316,-186.3476"/>
</g>
<!-- [root] provider[&quot;registry.terraform.io/hashicorp/aws&quot;] (close) -->
<g id="node21" class="node">
<title>[root] provider["registry.terraform.io/hashicorp/aws"] (close)</title>
<ellipse fill="none" stroke="#000000" cx="1180.1229" cy="-378" rx="247.2168" ry="18"/>
<text text-anchor="middle" x="1180.1229" y="-373.8" font-family="Times,serif" font-size="14.00" fill="#000000">[root] provider["registry.terraform.io/hashicorp/aws"] (close)</text>
</g>
<!-- [root] provider[&quot;registry.terraform.io/hashicorp/aws&quot;] (close)&#45;&gt;[root] aws_instance.hpc_aws_instance (expand) -->
<g id="edge21" class="edge">
<title>[root] provider["registry.terraform.io/hashicorp/aws"] (close)-&gt;[root] aws_instance.hpc_aws_instance (expand)</title>
<path fill="none" stroke="#000000" d="M1106.1097,-360.7542C1061.6873,-350.4034 1004.9485,-337.1827 958.3534,-326.3255"/>
<polygon fill="#000000" stroke="#000000" points="959.1059,-322.9072 948.5725,-324.0465 957.5173,-329.7246 959.1059,-322.9072"/>
</g>
<!-- [root] provider[&quot;registry.terraform.io/hashicorp/aws&quot;] (close)&#45;&gt;[root] aws_route_table_association.hpc_route_table_public_subnet&#45;1 (expand) -->
<g id="edge22" class="edge">
<title>[root] provider["registry.terraform.io/hashicorp/aws"] (close)-&gt;[root] aws_route_table_association.hpc_route_table_public_subnet-1 (expand)</title>
<path fill="none" stroke="#000000" d="M1180.1229,-359.8314C1180.1229,-352.131 1180.1229,-342.9743 1180.1229,-334.4166"/>
<polygon fill="#000000" stroke="#000000" points="1183.623,-334.4132 1180.1229,-324.4133 1176.623,-334.4133 1183.623,-334.4132"/>
</g>
<!-- [root] provider[&quot;registry.terraform.io/hashicorp/external&quot;] (close) -->
<g id="node22" class="node">
<title>[root] provider["registry.terraform.io/hashicorp/external"] (close)</title>
<ellipse fill="none" stroke="#000000" cx="2128.1229" cy="-378" rx="263.3879" ry="18"/>
<text text-anchor="middle" x="2128.1229" y="-373.8" font-family="Times,serif" font-size="14.00" fill="#000000">[root] provider["registry.terraform.io/hashicorp/external"] (close)</text>
</g>
<!-- [root] provider[&quot;registry.terraform.io/hashicorp/external&quot;] (close)&#45;&gt;[root] data.external.datasource_host_2_ip (expand) -->
<g id="edge23" class="edge">
<title>[root] provider["registry.terraform.io/hashicorp/external"] (close)-&gt;[root] data.external.datasource_host_2_ip (expand)</title>
<path fill="none" stroke="#000000" d="M2098.0874,-360.0535C2054.7016,-334.13 1974.4442,-286.1754 1926.4052,-257.4716"/>
<polygon fill="#000000" stroke="#000000" points="1927.9166,-254.2975 1917.5369,-252.1727 1924.3261,-260.3065 1927.9166,-254.2975"/>
</g>
<!-- [root] root -->
<g id="node23" class="node">
<title>[root] root</title>
<ellipse fill="none" stroke="#000000" cx="962.1229" cy="-450" rx="50.9823" ry="18"/>
<text text-anchor="middle" x="962.1229" y="-445.8" font-family="Times,serif" font-size="14.00" fill="#000000">[root] root</text>
</g>
<!-- [root] root&#45;&gt;[root] local.string_local_host_2_ip (expand) -->
<g id="edge24" class="edge">
<title>[root] root-&gt;[root] local.string_local_host_2_ip (expand)</title>
<path fill="none" stroke="#000000" d="M911.7483,-446.5591C810.5003,-439.1578 589.9238,-420.4003 566.1229,-396 550.5834,-380.0691 549.1717,-354.2375 551.0151,-334.3257"/>
<polygon fill="#000000" stroke="#000000" points="554.5066,-334.6096 552.2612,-324.2554 547.5596,-333.7498 554.5066,-334.6096"/>
</g>
<!-- [root] root&#45;&gt;[root] output.aws_hpc_instance (expand) -->
<g id="edge25" class="edge">
<title>[root] root-&gt;[root] output.aws_hpc_instance (expand)</title>
<path fill="none" stroke="#000000" d="M924.8193,-437.6228C892.4489,-426.8824 844.9412,-411.1195 806.9031,-398.4985"/>
<polygon fill="#000000" stroke="#000000" points="807.5435,-395.0234 796.9501,-395.1961 805.339,-401.6672 807.5435,-395.0234"/>
</g>
<!-- [root] root&#45;&gt;[root] output.datasource_host_2_ip_out (expand) -->
<g id="edge26" class="edge">
<title>[root] root-&gt;[root] output.datasource_host_2_ip_out (expand)</title>
<path fill="none" stroke="#000000" d="M1011.04,-444.8508C1113.0653,-434.1113 1351.8429,-408.9768 1505.7957,-392.7713"/>
<polygon fill="#000000" stroke="#000000" points="1506.2326,-396.2447 1515.8112,-391.717 1505.4998,-389.2832 1506.2326,-396.2447"/>
</g>
<!-- [root] root&#45;&gt;[root] output.local_host_2_ip_out (expand) -->
<g id="edge27" class="edge">
<title>[root] root-&gt;[root] output.local_host_2_ip_out (expand)</title>
<path fill="none" stroke="#000000" d="M912.7789,-445.3204C834.8978,-437.5405 678.8817,-420.356 548.1229,-396 442.8516,-376.3915 322.6698,-345.5659 248.5903,-325.568"/>
<polygon fill="#000000" stroke="#000000" points="249.4639,-322.1785 238.8966,-322.9418 247.6335,-328.935 249.4639,-322.1785"/>
</g>
<!-- [root] root&#45;&gt;[root] provider[&quot;registry.terraform.io/hashicorp/aws&quot;] (close) -->
<g id="edge28" class="edge">
<title>[root] root-&gt;[root] provider["registry.terraform.io/hashicorp/aws"] (close)</title>
<path fill="none" stroke="#000000" d="M999.5984,-437.6228C1031.7827,-426.9931 1078.8621,-411.4439 1116.8731,-398.8898"/>
<polygon fill="#000000" stroke="#000000" points="1118.4311,-402.0613 1126.829,-395.6017 1116.2358,-395.4144 1118.4311,-402.0613"/>
</g>
<!-- [root] root&#45;&gt;[root] provider[&quot;registry.terraform.io/hashicorp/external&quot;] (close) -->
<g id="edge29" class="edge">
<title>[root] root-&gt;[root] provider["registry.terraform.io/hashicorp/external"] (close)</title>
<path fill="none" stroke="#000000" d="M1012.5379,-447.0567C1148.6358,-439.0891 1534.8988,-416.33 1856.1229,-396 1879.8883,-394.4959 1904.8195,-392.8877 1929.5402,-391.2744"/>
<polygon fill="#000000" stroke="#000000" points="1929.9921,-394.7524 1939.7425,-390.6075 1929.5354,-387.7673 1929.9921,-394.7524"/>
</g>
</g>
</svg>